<svg xmlns="http://www.w3.org/2000/svg" viewBox="0 0 117.25 36">
  <g id="Laag_2" data-name="Laag 2">
    <g id="Logo">
        <path id="Path_1903" d="M104.08 0h-1.5a13.17 13.17 0 00-13.16 13.17v9.66A13.17 13.17 0 00102.58 36h1.5a13.19 13.19 0 0013.17-13.17v-9.66A13.19 13.19 0 00104.08 0zm-1.5 8.46h1.5a4.67 4.67 0 013 1.12l-9.2 12.07v-8.48a4.72 4.72 0 014.7-4.71zm1.5 19.07h-1.5a4.58 4.58 0 01-3-1.11l9.23-12.07v8.48a4.71 4.71 0 01-4.71 4.71z" data-name="Path 1903"></path>
        <g id="Group_859" data-name="Group 859">
          <g id="Group_854" data-name="Group 854">
              <path id="Path_1904" d="M74.54 35.44H6.16A6.17 6.17 0 010 29.23V6.72A6.17 6.17 0 016.16.56l68.38.06a6.15 6.15 0 016.16 6.15v22.51a6.17 6.17 0 01-6.16 6.16zM6.15 3.17a3.55 3.55 0 00-3.54 3.55v22.51a3.56 3.56 0 003.55 3.55h68.38a3.56 3.56 0 003.55-3.55V6.77a3.56 3.56 0 00-3.55-3.55z" data-name="Path 1904"></path>
          </g>
          <g id="Group_858" data-name="Group 858">
              <g id="Group_855" data-name="Group 855">
                <path id="Path_1905" d="M26 17.8a6 6 0 002.13-4.56 6.21 6.21 0 00-6.32-6.1h-9.6a.87.87 0 00-.87.87v3.09a.87.87 0 00.87.87h.43a.2.2 0 01.2.2v3.5c0 .34-.43.93-1.3 1.76a.65.65 0 000 .93c.86.82 1.3 1.4 1.3 1.76v3.6a.31.31 0 01-.31.31h-.32a.87.87 0 00-.87.87V28a.87.87 0 00.87.87H22.7a6.39 6.39 0 006.45-6A5.13 5.13 0 0026 17.8zm-8.42-5.87a.21.21 0 01.21-.22h4.09a1.77 1.77 0 011.55 1.85 1.77 1.77 0 01-1.55 1.85h-4.05a.21.21 0 01-.21-.21zm5.28 12.37h-5a.22.22 0 01-.22-.22v-3.26a.22.22 0 01.22-.22h5a1.75 1.75 0 011.5 1.85 1.75 1.75 0 01-1.5 1.85z" data-name="Path 1905"></path>
              </g>
              <g id="Group_856" data-name="Group 856">
                <path id="Path_1906" d="M49.6 17.44a.65.65 0 010 .92c-.87.82-1.3 1.41-1.3 1.77v.65a8.46 8.46 0 01-8.12 8.54 8.27 8.27 0 01-8.43-8.11v-1.06c0-.36-.43-.95-1.3-1.77a.65.65 0 010-.92c.87-.83 1.3-1.42 1.3-1.76v-3.51a.22.22 0 00-.22-.22h-.43a.87.87 0 01-.87-.87V8a.87.87 0 01.87-.87h5A.87.87 0 0137 8v12.94a3.12 3.12 0 002.74 3.16 3 3 0 003.34-2.73V8a.87.87 0 01.87-.87h5a.87.87 0 01.85.87v3.08a.87.87 0 01-.87.88h-.41a.21.21 0 00-.22.22v3.48c0 .34.43.95 1.3 1.78z" data-name="Path 1906"></path>
              </g>
              <g id="Group_857" data-name="Group 857">
                <path id="Path_1907" d="M69.4 11.07V8.22a1.07 1.07 0 00-.31-.76 1.09 1.09 0 00-.76-.32h-3.84a1.08 1.08 0 00-1.07 1.08v2.77l-2.69 3.6a.16.16 0 01-.11.05.14.14 0 01-.1-.05L57.85 11V8.22a1.08 1.08 0 00-1.07-1.08h-3.84a1.09 1.09 0 00-.76.32 1.07 1.07 0 00-.31.76v2.86a1.67 1.67 0 00.27 1.06L56.43 18l-4.29 5.88a1.69 1.69 0 00-.27 1.12v2.86a1.06 1.06 0 00.31.75 1.09 1.09 0 00.76.32h3.84a1.07 1.07 0 00.76-.32 1 1 0 00.31-.75V25l2.69-3.53a.14.14 0 01.11-.06.15.15 0 01.1.06L63.42 25v2.87a1.06 1.06 0 00.31.75 1.07 1.07 0 00.76.32h3.84a1.09 1.09 0 00.76-.32 1.06 1.06 0 00.31-.75V25a1.69 1.69 0 00-.27-1.07L64.84 18l4.29-5.88a1.69 1.69 0 00.27-1.05z" data-name="Path 1907"></path>
              </g>
          </g>
        </g>
    </g>
  </g>
</svg>
